<svg xmlns="http://www.w3.org/2000/svg" data-name="Layer 1" width="562" height="486.80525" viewBox="0 0 562 486.80525">
<path d="M553.88171,596.17145a15.51335,15.51335,0,0,0,15.61066,15.38848l265.99316-1.90637a15.5,15.5,0,0,0-.22216-30.9992L569.2702,580.56073A15.5134,15.5134,0,0,0,553.88171,596.17145Z" transform="translate(-319 -208.75509)" fill="#f2f2f2"/>
<path d="M585.78864,592.46466a.9845.9845,0,0,1,.98-.98706l68.70306-.24567a.98365.98365,0,1,1,.007,1.96729h0l-68.70307.24566A.98477.98477,0,0,1,585.78864,592.46466Z" transform="translate(-319 -208.75509)" fill="#ccc"/>
<path d="M585.868,601.48187a.98451.98451,0,0,1,.98-.98706l176.88977-1.04944a.98366.98366,0,0,1,.01123,1.96729h-.00421L586.855,602.4621A.98474.98474,0,0,1,585.868,601.48187Z" transform="translate(-319 -208.75509)" fill="#ccc"/>
<path d="M553.88171,537.17145a15.51335,15.51335,0,0,0,15.61066,15.38848l265.99316-1.90637a15.5,15.5,0,0,0-.22216-30.9992L569.2702,521.56073A15.5134,15.5134,0,0,0,553.88171,537.17145Z" transform="translate(-319 -208.75509)" fill="#f2f2f2"/>
<path d="M582.868,542.48187a.98451.98451,0,0,1,.98-.98706l176.88977-1.04944a.98365.98365,0,1,1,.007,1.96729h0L583.855,543.4621A.98474.98474,0,0,1,582.868,542.48187Z" transform="translate(-319 -208.75509)" fill="#ccc"/>
<path d="M582.868,532.48187a.98451.98451,0,0,1,.98-.98706l176.88977-1.04944a.98365.98365,0,1,1,.007,1.96729h0L583.855,533.4621A.98474.98474,0,0,1,582.868,532.48187Z" transform="translate(-319 -208.75509)" fill="#ccc"/>
<path d="M631.7298,664.56073l-265.99317-1.90637a15.5,15.5,0,0,0-.22216,30.9992l265.99316,1.90637a15.5,15.5,0,0,0,.22217-30.9992Z" transform="translate(-319 -208.75509)" fill="#f2f2f2"/>
<path d="M449.2243,677.44488l-68.70309-.24566a.98365.98365,0,1,1,.007-1.96729l68.70309.24567a.98365.98365,0,1,1-.007,1.96728Z" transform="translate(-319 -208.75509)" fill="#ccc"/>
<path d="M558.1449,686.4621l-176.88977-1.04944a.98365.98365,0,1,1,.007-1.96729h0l176.88974,1.04944a.98365.98365,0,1,1-.007,1.96729Z" transform="translate(-319 -208.75509)" fill="#ccc"/><circle cx="555" cy="327.16309" r="7" fill="#f2f2f2"/>
<circle cx="555" cy="386.16309" r="7" fill="##F5A801"/>
<path d="M559.72754,639.23578,367.28165,668.06433a12.07064,12.07064,0,1,1-3.57648-23.87488L556.151,615.361a12.07064,12.07064,0,1,1,3.57648,23.87488Z" transform="translate(-319 -208.75509)" fill="#F5A801"/>
<path d="M425.82855,646.121l-49.67862,7.62439a.7196.7196,0,0,1-.21832-1.42255h0l49.67862-7.62439a.7196.7196,0,0,1,.21832,1.42255Z" transform="translate(-319 -208.75509)" fill="#fff"/>
<path d="M505.56784,640.26849,377.613,659.59772a.7196.7196,0,0,1-.21833-1.42255h0L505.34952,638.846a.7196.7196,0,1,1,.21832,1.42254Z" transform="translate(-319 -208.75509)" fill="#fff"/>
<path d="M515.0224,624.72589a5.16179,5.16179,0,0,1-4.74048-6.27124l-20.917-14.98023,2.721-6.80438,24.71338,17.97388a5.1546,5.1546,0,0,1-1.77692,10.082Z" transform="translate(-319 -208.75509)" fill="#a0616a"/>
<path d="M458.8288,540.96918l-12.569,4.5996a4.47859,4.47859,0,0,0-2.66672,5.74494q.074.20234.16727.39685l17.137,35.74939L502.188,617.21948l6.32873-10.0838-31.27807-28.48163Z" transform="translate(-319 -208.75509)" fill="#3f3d56"/>
<path d="M453.66049,614.90118c-14.32382-1.33142-28.355-4.638-42.70077-5.75l5.75732-14.653,29.4231,4.38208Z" transform="translate(-319 -208.75509)" fill="#a0616a"/>
<path d="M405.06342,618.3468l-.12436,1.09735-1.0242,8.81519-1.19977.07312-.0658,11.03918a5.13859,5.13859,0,0,1-2.09955,6.01337,4.21657,4.21657,0,0,1-.50476.278,52.55557,52.55557,0,0,1,.6511-17.19879,30.66231,30.66231,0,0,1,2.04834-6.11584,25.03154,25.03154,0,0,1,1.53625-2.81647C404.52206,619.12958,404.78543,618.73449,405.06342,618.3468Z" transform="translate(-319 -208.75509)" fill="#2f2e41"/>
<path d="M405.29019,616.44476l-.22677,1.89472v.00732l-.12436,1.09735c-.32187.04389-.54865.07312-.65842.08777a.63456.63456,0,0,1-.08048.00732Z" transform="translate(-319 -208.75509)" fill="#F5A801"/>
<path d="M457.3768,580.11584l-2.47266,14.38233s6.00608,13.53375,1.87278,16.90625a4.22757,4.22757,0,0,0-1.37534,3.65045c-.58523-.05121-1.16315-.10242-1.74109-.15363-14.32382-1.33142-28.355-4.638-42.70077-5.75-1.01688-.08044-2.02643-.15362-3.04325-.20483l4.41858-12.56806-2.98474-11.17077-3.09445-11.58783-.66568-19.07892a10.6774,10.6774,0,0,1,.00726-1.0827c0-.19019.00733-.37311.022-.5633a16.16627,16.16627,0,0,1,6.84732-12.15838.02577.02577,0,0,0,.01464-.00733,16.20023,16.20023,0,0,1,2.12146-1.25824,15.715,15.715,0,0,1,2.46534-.973l.84863-.256,4.59412-7.43262,5.32574-.556,1.97519-.20483,12.868-1.33875,2.77261,3.59925.50477.65838,1.95321,2.53119,6.08652,3.24079a14.91892,14.91892,0,0,1,3.60654,2.67749,15.14139,15.14139,0,0,1,4.36737,9.2688,14.91894,14.91894,0,0,1,.04388,2.42877Z" transform="translate(-319 -208.75509)" fill="#3f3d56"/>
<path d="M394.73956,515.34356c-.13214,5.68567,1.99268,11.191,5.0452,16.02656a30.40274,30.40274,0,0,1,4.23785-7.84137,24.40954,24.40954,0,0,0,2.59775,15.45855,3.27754,3.27754,0,0,0,.27808.17835,9.58077,9.58077,0,0,0,8.33413,1.02191,18.69122,18.69122,0,0,1-1.60647-22.65094c1.32-1.908,3.02725-3.59537,3.84485-5.76666,1.29092-3.46442.05-7.27881-.73282-10.89081-.732-3.3617-.86011-7.36212,1.3952-9.82581a2.37012,2.37012,0,0,0-2.17218-1.00012,4.48308,4.48308,0,0,0-3.04736,2.6499,19.33328,19.33328,0,0,1-1.9682,3.69965c-1.66373,2.01248-4.497,2.48828-6.88468,3.54889C398.2785,502.52725,394.87817,509.017,394.73956,515.34356Z" transform="translate(-319 -208.75509)" fill="#2f2e41"/>
<path d="M443.41318,512.09274c-.33045-1.15652,1.94711,5.91306.84808,6.04068-5.00558.57422-11.877,3.56372-15.36331,4.95837-.157-.01824-.314-.03649-.4664-.05926-.374-.041-.73886-.10028-1.099-.16864-8.11792-1.53595-11.23965-14.006-11.23965-14.12,0-.56057,1.34545-15.9577,3.465-16.18557a15.62024,15.62024,0,0,1,1.67621-.09116h5.25955a24.4417,24.4417,0,0,1,3.30164-.47855h.00924c10.58838-.80673,18.93717,5.647,18.15677,13.49994-.0046.0091-.01385.01822-.01846.02735-.22629.33725-.42483.65631-.60034.96167-.17084.28714-.314.56057-.43866.82037-.96512,2.0054,1.51565,4.52881-.1293,4.99982-2.18781.62643,5.75405,21.21615-2.90558,21.21615C448.08121,534.71161,444.32474,515.28314,443.41318,512.09274Z" transform="translate(-319 -208.75509)" fill="#2f2e41"/>
<circle cx="114.96106" cy="302.96619" r="12.45264" fill="#a0616a"/>
<path d="M447.9613,506.16772c-.20779.10938-.411.20963-.6188.30994-.217.1048-.434.20965-.65109.30536-4.1698,1.89148-7.56379,2.1011-9.62329-.61527a11.5123,11.5123,0,0,0-.94663-4.14752,6.66635,6.66635,0,0,1-1.099,4.14752h-4.14667c-4.27136,2.8349-6.46478,3.13117-3.50021,12.438.82657,2.59332,4.11316,17.6839,2.82022,19.92175-.374-.041-4.3533-16.56988-4.71347-16.63824-8.11792-1.53595-13.27588-14.91025-12.61554-15.66681a13.94366,13.94366,0,0,1,1.44534-6.203,14.26749,14.26749,0,0,1,5.42118-5.89768,25.142,25.142,0,0,1,4.33139-1.6271c.03695-.00913.06927-.01825.1062-.02735.45715-.12307.92355-.237,1.38992-.33273a25.56923,25.56923,0,0,1,2.91837-.44208c.06927-.00454.13852-.00912.20318-.00912a2.19919,2.19919,0,0,1,1.11286.30539c.00461,0,.00461.00455.00924.00455a2.09465,2.09465,0,0,1,.61878.55148,2.1193,2.1193,0,0,1,.45254,1.3172h4.61768q.25626,0,.51257.01364A12.38136,12.38136,0,0,1,447.94284,505.516C447.95667,505.73474,447.9613,505.949,447.9613,506.16772Z" transform="translate(-319 -208.75509)" fill="#2f2e41"/>
<circle cx="101.73425" cy="285.22797" r="8.20388" fill="#2f2e41"/>
<path d="M400.54974,645.385a4.21657,4.21657,0,0,1-.50476.278,5.15136,5.15136,0,1,1-4.55368-9.24176q.13161-.06482.26679-.12213l-.01465-7.52765-.01465-8.85913-.01459-9.342,7.11066-1.75574-.08048,13.53376-.02929,5.98407-.0658,11.03918A5.13859,5.13859,0,0,1,400.54974,645.385Z" transform="translate(-319 -208.75509)" fill="#a0616a"/>
<path d="M428.656,549.30279l-.7389,1.38263-18.56683,34.522-.556,1.03149-2.62625,22.627-.87787,7.57886-.22677,1.89471v.00733l-.12436,1.09735-1.0242,8.81519-1.19977.07312-2.019.13171-4.95263.30725-3.709.23407.00733-5.93292.06579-44.96125,13.48984-24.65338.32922-.60717,5.20865-9.51752a4.48746,4.48746,0,0,1,6.09192-1.77838q.18526.10163.36038.22021Z" transform="translate(-319 -208.75509)" fill="#3f3d56"/>
<circle cx="7" cy="466.16309" r="7" fill="#f2f2f2"/>
<path d="M805.9281,421.20633s-2.53845,26.86993-3.943,46.76086v.01465q-.1647,2.40312-.30725,4.64536l-.74616.06585c-.51208.05121-1.01684.10971-1.529.16092-8.17877.87055-16.277,2.31174-24.4046,3.56265q-1.17417.17565-2.34833.35117a152.19083,152.19083,0,0,1-24.52167,1.98981h-.15362c.06585-1.02414.16821-2.36292.28534-3.8992.68768-8.69812,2.07757-23.77549,2.07757-23.77549l1.29486-8.72741,4.23566-28.589.0293-.21952.03656-.24868.20483-.05121,8.89569-2.31168,4.78436-1.23633,2.77991-3.83337,3.70166-5.10623,15.39191,1.89474,1.12659,4.1991,2.085,7.73984.06579.24872,8.07636,4.68927Z" transform="translate(-319 -208.75509)" fill="#e6e6e6"/><circle cx="464.95712" cy="174.03893" r="16.31188" fill="#ffb6b6"/>
<path d="M766.86505,372.92209c1.43219,1.15744,1.10443,6.78647,2.70038,5.869s1.928-2.56054,3.76575-2.57778a6.01723,6.01723,0,0,1,3.96258,1.79318c.19562.17679.38166.36215.56238.54538.16528-.058.32849-.11051.50024-.15354a5.18287,5.18287,0,0,1,3.80127.53525,5.0854,5.0854,0,0,0-2.89532,1.16745c.35077.39313.70685.78845,1.081,1.15381,3.124,3.06146,9.52948-.19879,13.83643-.93445-3.58722,3.91675-2.88,6.10324-1.98779,11.33841l.00372.286c.18347-1.2073,4.05011-1.14712,3.41266.45484a20.59327,20.59327,0,0,1-2.98023,4.381c5.26856-3.64987,9.52179-8.68094,10.46161-14.75824a8.93419,8.93419,0,0,0,.20538-3.82739,2.93513,2.93513,0,0,0-2.80334-2.235,10.815,10.815,0,0,0-13.3009-13.64243,41.33293,41.33293,0,0,0-5.00336,2.15955,8.99354,8.99354,0,0,1-5.29919.89755c-1.13166-.23376-2.27784-.81973-3.38715-.48794-1.28528.38547-1.83777,1.74289-2.353,3.05331a5.177,5.177,0,0,1,2.412,1.81943,5.06559,5.06559,0,0,0-3.11646-.12662.31645.31645,0,0,0-.05542.015C769.22461,371.73318,769.15729,372.24454,766.86505,372.92209Z" transform="translate(-319 -208.75509)" fill="#2f2e41"/><path d="M774.99805,476.41662q-1.17408.17565-2.34833.35117a152.19092,152.19092,0,0,1-24.52167,1.98981c.05847-1.29486.09509-2.597.13165-3.8992.05121-1.82157.08777-3.65046.12433-5.47934q.25233-12.43269.50476-24.85816c.00733-.395.01465-.79742.02192-1.19244.16827-8.37628.39508-17.03052,3.86993-24.66068a25.15318,25.15318,0,0,1,2.94812-4.8941c.05853-.08048.10974-.1536.16827-.22678.08045-.10238.161-.2048.2414-.29989a24.29793,24.29793,0,0,1,3.1018-3.21152,17.87074,17.87074,0,0,1,13.007-4.70389l.35114.534.4682.72427c-.30725,2.28974-.62183,4.58682-.91443,6.88391-1.26556,9.95642-2.17267,19.97141-1.15588,29.93515.86328,8.37632,3.07983,16.577,3.78216,24.96061.02924.278.05121.56332.07312.8413A69.71563,69.71563,0,0,1,774.99805,476.41662Z" transform="translate(-319 -208.75509)" fill="#3f3d56"/>
<path d="M800.93,472.68817c.36-1.56.7-3.13,1.06-4.71v-.01q2.08512-9.36,4.18-18.72c1.83-8.18,3.66-16.64,2.09-24.87a24.77831,24.77831,0,0,0-.61-2.51c-.08-.27-.17-.54-.26-.81a24.93325,24.93325,0,0,0-2.55-5.4c-2.78-4.44-6.94-7.89-12.02-8.8a1.6657,1.6657,0,0,0-.29-.06l-1.11,1.03c-.23,2.13-.45,4.28-.69,6.42-1.14,10.13-2.63,20.25-6.04,29.83-2.92,8.2-7.2,15.87-9.87,24.15-.01.05-.03.1-.04.14a70.77963,70.77963,0,0,0-2.13,8.4c.78-.12,1.57-.23,2.35-.35,8.13-1.25,16.22-2.69,24.4-3.56Z" transform="translate(-319 -208.75509)" fill="#3f3d56"/>
<path d="M816.81964,379.36184l-.46814-4.49176-.10974-1.03884-.16827-1.66791-3.6139-34.66834a4.7198,4.7198,0,0,0-2.07031-5.38421,4.52655,4.52655,0,0,0-6.20355,1.56552c-.022.03656-.03662.07315-.05853.10971a4.74625,4.74625,0,0,0,1.63867,6.40842,4.8073,4.8073,0,0,0,.68036.32189l-.02924.973-.08777,3.05056-.06585,2.30442-.139,4.58682-.05121,1.77771-.16827,5.76459-.16095,5.55984-.19751,6.73758-.15363,5.17941,1.86548.47553Z" transform="translate(-319 -208.75509)" fill="#ffb6b6"/>
<path d="M820.43353,386.74319a8.15334,8.15334,0,0,0-.43158-1.763c-.94372-1.6387-1.52166.651-1.00219-3.73828.417-3.56265-2.085-3.11639-1.18512-3.87723,1.485-1.25824-.5633-1.81424-1.46308-2.49456-.4024-.3-.57062-.62186-.10974-1.03885a3.104,3.104,0,0,1,.71692-.46817c.98029-.51209.417-.89985-.88513-1.19974a61.79056,61.79056,0,0,0-8.85913-.82666c-.71692-.03656-1.30213-.05121-1.66791-.06586-.27069-.00729-.42432-.00729-.42432-.00729a2.93279,2.93279,0,0,0-.89978,1.83615,10.18908,10.18908,0,0,0,.33649,4.44052,15.70113,15.70113,0,0,0,1.19244,2.88232A2.07159,2.07159,0,0,1,806,381.54919v.00733a1.61363,1.61363,0,0,1-.84131,1.08267c-.98761.65838-.4389,2.041.32923,3.3432a14.78822,14.78822,0,0,1,1.65332,2.80914c0,.89984-6.08655,20.02262-6.08655,20.02262l2.23852,28.87442a8.03127,8.03127,0,0,0,5.83777,1.6167,8.6254,8.6254,0,0,0,4.6015-2.341,20.36686,20.36686,0,0,0,4.25031-6.02072C823.8938,419.07052,821.69183,393.75149,820.43353,386.74319Z" transform="translate(-319 -208.75509)" fill="#3f3d56"/>
<path d="M709.439,339.12481a4.7406,4.7406,0,0,1,2.2387,6.22156,4.55092,4.55092,0,0,1-.3767.65064l21.04864,29.13913-7.82538,8.82653L704.6261,346.87631a4.72736,4.72736,0,0,1-1.31226-5.62033,4.52413,4.52413,0,0,1,6.01331-2.1853Q709.38346,339.09695,709.439,339.12481Z" transform="translate(-319 -208.75509)" fill="#ffb6b6"/>
<path d="M768.44232,424.56378s-2.81372,10.06424-15.94574,2.66992-27.3349-35.00665-27.4765-36.89862,1.62238-.31955-1.26819-3.65738c-2.35089-2.71466-.02917-3.751-1.19946-3.87662-3.086-.33108,2.27191-4.243-1.53858-3.79415s8.61451-8.38276,8.61451-8.38276,2.26446.05436,3.99267,4.88105c.97064,2.711.05371,4.56585,2.36707,4.55532s1.323,5.482,1.81219,6.20777,16.27692,13.14618,16.27692,13.14618Z" transform="translate(-319 -208.75509)" fill="#3f3d56"/><circle cx="431.97128" cy="76.08154" r="76.08154" fill="#F5A801"/>
<path d="M712.31219,267.90576a20.918,20.918,0,0,1,1.79975,4.75766c1.03186,4.34677.30749,8.29159-2.06531,10.14181a4.59816,4.59816,0,0,1-.76465.50147c-2.96863,1.55246-7.06427-.08606-10.347-3.75226a20.9179,20.9179,0,0,1-2.88086-4.19229,20.44948,20.44948,0,0,1-1.7854-4.70877c-1.15644-4.80075-.17066-9.13055,2.80676-10.68762C703.01886,257.90356,708.94312,261.4635,712.31219,267.90576Z" transform="translate(-319 -208.75509)" fill="#fff"/>
<path d="M711.05188,275.33578a10.94482,10.94482,0,0,1,.99475,7.46945,4.59816,4.59816,0,0,1-.76465.50147c-2.96863,1.55246-7.06427-.08606-10.347-3.75226a20.9179,20.9179,0,0,1-2.88086-4.19229,20.44948,20.44948,0,0,1-1.7854-4.70877A10.9918,10.9918,0,0,1,711.05188,275.33578Z" transform="translate(-319 -208.75509)" fill="#3f3d56"/><path d="M741.84723,252.46c3.23468,6.18524,2.93878,12.78366-.57446,15.12881a4.59191,4.59191,0,0,1-.45575.27216c-3.93445,2.05759-9.85877-1.50235-13.22779-7.94455a20.36766,20.36766,0,0,1-1.78076-4.69989c-1.16113-4.80958-.17535-9.1394,2.80213-10.6965C732.55383,242.45785,738.47815,246.01777,741.84723,252.46Z" transform="translate(-319 -208.75509)" fill="#fff"/><path d="M740.29449,260.043a10.94756,10.94756,0,0,1,.97828,7.54583,4.59191,4.59191,0,0,1-.45575.27216c-3.93445,2.05759-9.85877-1.50235-13.22779-7.94455a20.36766,20.36766,0,0,1-1.78076-4.69989A10.9913,10.9913,0,0,1,740.29449,260.043Z" transform="translate(-319 -208.75509)" fill="#3f3d56"/><path d="M708.58124,311.61105c8.95788,17.12906,26.33648,25.72418,38.81622,19.19772s15.33478-25.703,6.37689-42.832C743.934,302.324,729.031,310.402,708.58124,311.61105Z" transform="translate(-319 -208.75509)" fill="#fff"/><path d="M818.48193,249.69211a76.10875,76.10875,0,0,0-77.53668-40.1648,76.08839,76.08839,0,0,1,.23541,150.84473,76.0624,76.0624,0,0,0,77.30127-110.67993Z" transform="translate(-319 -208.75509)" opacity="0.2" style="isolation:isolate"/></svg>



<svg xmlns="http://www.w3.org/2000/svg" data-name="Layer 1" width="965.82539" height="729.2137" viewBox="0 0 965.82539 729.2137" xmlns:xlink="http://www.w3.org/1999/xlink">



<path d="M562.48086,240.95789H324.22375a4.41735,4.41735,0,0,1-4.41216-4.41216V177.44432a4.41735,4.41735,0,0,1,4.41216-4.41216H562.48086a4.41735,4.41735,0,0,1,4.41216,4.41216v59.10141A4.41735,4.41735,0,0,1,562.48086,240.95789ZM324.22375,174.797a2.65019,2.65019,0,0,0-2.64729,2.6473v59.10141a2.65019,2.65019,0,0,0,2.64729,2.64729H562.48086a2.65019,2.65019,0,0,0,2.64729-2.64729V177.44432a2.65019,2.65019,0,0,0-2.64729-2.6473Z" transform="translate(-117.0873 -85.39315)" fill="#3f3d56"/><circle cx="244.15676" cy="119.33414" r="17.97281" fill="#f9a826"/>


<path d="M402.75269,192.74542a2.99547,2.99547,0,0,0,0,5.99094H543.96762a2.99547,2.99547,0,0,0,0-5.99094Z" transform="translate(-117.0873 -85.39315)" fill="#e6e6e6"/>


<path d="M402.75269,210.71823a2.99546,2.99546,0,1,0,0,5.99093H463.5179a2.99547,2.99547,0,1,0,0-5.99093Z" transform="translate(-117.0873 -85.39315)" fill="#e6e6e6"/>


<path d="M459.044,451.6273H353.15171a4.41735,4.41735,0,0,1-4.41216-4.41216V336.93267a4.41735,4.41735,0,0,1,4.41216-4.41216H459.044a4.41735,4.41735,0,0,1,4.41216,4.41216V447.21514A4.41735,4.41735,0,0,1,459.044,451.6273ZM353.15171,334.28538a2.65019,2.65019,0,0,0-2.6473,2.64729V447.21514a2.65019,2.65019,0,0,0,2.6473,2.6473H459.044a2.65019,2.65019,0,0,0,2.6473-2.6473V336.93267a2.65019,2.65019,0,0,0-2.6473-2.64729Z" transform="translate(-117.0873 -85.39315)" fill="#3f3d56"/>


<path d="M375.71524,355.26276a2.99547,2.99547,0,0,0,0,5.99094h60.76521a2.99547,2.99547,0,0,0,0-5.99094Z" transform="translate(-117.0873 -85.39315)" fill="#e6e6e6"/>


<path d="M375.71524,372.91141a2.99547,2.99547,0,1,0,0,5.99093h60.76521a2.99546,2.99546,0,1,0,0-5.99093Z" transform="translate(-117.0873 -85.39315)" fill="#e6e6e6"/>


<path d="M406.09806,428.88505A18.85509,18.85509,0,1,1,424.95316,410.03,18.87645,18.87645,0,0,1,406.09806,428.88505Z" transform="translate(-117.0873 -85.39315)" fill="#f9a826"/>


<path d="M632.51307,85.39315H738.40536a4.41735,4.41735,0,0,1,4.41216,4.41216V200.08778a4.41735,4.41735,0,0,1-4.41216,4.41216H632.51307a4.41735,4.41735,0,0,1-4.41216-4.41216V89.80531A4.41735,4.41735,0,0,1,632.51307,85.39315ZM738.40536,202.73508a2.65019,2.65019,0,0,0,2.64729-2.6473V89.80531a2.65019,2.65019,0,0,0-2.64729-2.6473H632.51307a2.65019,2.65019,0,0,0-2.64729,2.6473V200.08778a2.65019,2.65019,0,0,0,2.64729,2.6473Z" transform="translate(-117.0873 -85.39315)" fill="#3f3d56"/>

<path d="M715.84182,181.75769a2.99547,2.99547,0,1,0,0-5.99094H655.07661a2.99547,2.99547,0,1,0,0,5.99094Z" transform="translate(-117.0873 -85.39315)" fill="#e6e6e6"/>

<path d="M715.84182,164.10905a2.99547,2.99547,0,1,0,0-5.99094H655.07661a2.99547,2.99547,0,1,0,0,5.99094Z" transform="translate(-117.0873 -85.39315)" fill="#e6e6e6"/>

<path d="M685.459,108.1354a18.8551,18.8551,0,1,1-18.85509,18.85509A18.87645,18.87645,0,0,1,685.459,108.1354Z" transform="translate(-117.0873 -85.39315)" fill="#f9a826"/>

<path d="M321.1723,313.55063a150.9528,150.9528,0,0,1,63.905-28.88887,148.76987,148.76987,0,0,1,70.5276,3.624,150.459,150.459,0,0,1,32.91242,14.261c10.559,6.17257,20.09991,13.77112,29.27982,21.81643,9.29936,8.15,18.29306,16.66283,28.00089,24.33558a156.87141,156.87141,0,0,0,97.60424,34.33533q4.39683.007,8.78748-.24217c1.58687-.08737,1.59706-2.56747,0-2.47954a154.34273,154.34273,0,0,1-100.89587-30.48842c-10.06169-7.52377-19.24871-16.1264-28.6278-24.46267-9.09313-8.0821-18.42973-15.944-28.74617-22.43723a151.85822,151.85822,0,0,0-167.66171,3.82159c-2.32795,1.61866-4.60186,3.31029-6.83919,5.05171-1.25779.979.50825,2.72239,1.7533,1.7533Z" transform="translate(-117.0873 -85.39315)" fill="#3f3d56"/><circle cx="202.7686" cy="227.25672" r="12.88579" fill="#3f3d56"/><circle cx="682.14609" cy="398.34489" r="12.88579" fill="#3f3d56"/>

<path d="M866.73905,410.33439H656.482a4.41735,4.41735,0,0,1-4.41216-4.41216v-109.4A4.41735,4.41735,0,0,1,656.482,292.11h210.2571a4.41735,4.41735,0,0,1,4.41216,4.41216v109.4A4.41735,4.41735,0,0,1,866.73905,410.33439ZM656.482,293.8749a2.65019,2.65019,0,0,0-2.6473,2.64729v109.4a2.6502,2.6502,0,0,0,2.6473,2.6473h210.2571a2.6502,2.6502,0,0,0,2.6473-2.6473v-109.4a2.65019,2.65019,0,0,0-2.6473-2.64729Z" transform="translate(-117.0873 -85.39315)" fill="#3f3d56"/><circle cx="574.65009" cy="245.47147" r="17.97281" fill="#f9a826"/>
<path d="M733.246,318.88275a2.99547,2.99547,0,1,0,0,5.99093H846.461a2.99546,2.99546,0,1,0,0-5.99093Z" transform="translate(-117.0873 -85.39315)" fill="#e6e6e6"/>

<path d="M733.246,336.85556a2.99547,2.99547,0,1,0,0,5.99093h60.76521a2.99546,2.99546,0,1,0,0-5.99093Z" transform="translate(-117.0873 -85.39315)" fill="#e6e6e6"/>

<path d="M677.95176,365.58887c-2.27858,0-4.13282,1.34394-4.13282,2.99546s1.85424,2.99547,4.13282,2.99547H844.78493c2.27858,0,4.13282-1.34395,4.13282-2.99547s-1.85424-2.99546-4.13282-2.99546Z" transform="translate(-117.0873 -85.39315)" fill="#e6e6e6"/>

<path d="M677.95176,383.56167c-2.27858,0-4.13282,1.344-4.13282,2.99547s1.85424,2.99547,4.13282,2.99547H844.78493c2.27858,0,4.13282-1.344,4.13282-2.99547s-1.85424-2.99547-4.13282-2.99547Z" transform="translate(-117.0873 -85.39315)" fill="#e6e6e6"/>

<path d="M639.58045,495.73439c11.86184-5.14564,25.10541-.65952,36.28582,4.08316,5.7582,2.4426,11.45469,5.04977,17.41372,6.9785a99.25973,99.25973,0,0,0,15.3534,3.63845,108.49819,108.49819,0,0,0,31.5394.193,110.12369,110.12369,0,0,0,30.43734-8.85043,102.92059,102.92059,0,0,0,26.34241-17.2226q1.49733-1.35236,2.93632-2.76689c1.14171-1.11858-.61209-2.87139-1.7533-1.75329a99.99816,99.99816,0,0,1-25.69784,18.1408,107.64942,107.64942,0,0,1-29.85683,9.59155,105.43839,105.43839,0,0,1-31.46184.54312,99.05014,99.05014,0,0,1-15.40456-3.34883,162.96293,162.96293,0,0,1-17.00233-6.60322c-11.28483-4.84639-23.823-9.59207-36.22293-6.24973a30.21236,30.21236,0,0,0-4.16025,1.48544c-1.46008.63338-.199,2.77021,1.25147,2.141Z" transform="translate(-117.0873 -85.39315)" fill="#3f3d56"/>
<path d="M634.99753,526.14562H535.66144l23.37712-40.49105a4.77368,4.77368,0,0,1,8.2685,0l9.98639,17.29705L594.2738,473.541a5.97673,5.97673,0,0,1,10.35221,0Z" transform="translate(-117.0873 -85.39315)" fill="#f9a826"/>
<path d="M635.09124,526.13485H529.199a4.41735,4.41735,0,0,1-4.41216-4.41216V462.62128a4.41735,4.41735,0,0,1,4.41216-4.41216H635.09124a4.41735,4.41735,0,0,1,4.41216,4.41216v59.10141A4.41735,4.41735,0,0,1,635.09124,526.13485ZM529.199,459.974a2.65019,2.65019,0,0,0-2.6473,2.64729v59.10141a2.65019,2.65019,0,0,0,2.6473,2.6473H635.09124a2.65019,2.65019,0,0,0,2.6473-2.6473V462.62128a2.65019,2.65019,0,0,0-2.6473-2.64729Z" transform="translate(-117.0873 -85.39315)" fill="#3f3d56"/>
<path d="M842.78535,474.11958l-18.87517,9.5846c-6.737,3.421-13.23861,2.83636-15.72849-4.29741v0A12.48085,12.48085,0,0,1,817.675,463.025l17.939-3.3489,76.8295-25.49012,46.53995-33.00078,17.06067,27.18086L922.268,457.38374Z" transform="translate(-117.0873 -85.39315)" fill="#ffb8b8"/><polygon points="813.808 706.872 799.366 704.465 800.971 677.187 816.215 677.187 813.808 706.872" fill="#ffb8b8"/><polygon points="953.968 680.229 939.992 684.589 929.131 659.516 942.738 652.646 953.968 680.229" fill="#ffb8b8"/>
<path d="M1063.27244,741.72054l-17.65033,7.22059L961.38188,638.2254,934.90638,768.196l-17.65033-3.20915C905.93362,652.935,896.701,538.643,908.02974,484.58727l65.38646-2.808,29.68465,94.67,14.44118,64.183Z" transform="translate(-117.0873 -85.39315)" fill="#2f2e41"/>
<path d="M930.10041,814.32555h0a12.67185,12.67185,0,0,1-7.85521-.83484l-8.57872-3.86042c-7.19328-.36934-12.09123,1.06343-16.09631-4.163a10.49627,10.49627,0,0,1-1.22539-10.5816h0a10.56885,10.56885,0,0,1,8.63109-6.28021l11.783-7.42484.61847,5.56623c5.38534,3.05094,11.77909,1.733,18.5541-1.23694l3.69822,12.94376A12.67187,12.67187,0,0,1,930.10041,814.32555Z" transform="translate(-117.0873 -85.39315)" fill="#2f2e41"/>
<path d="M1076.77382,787.77421h0a12.67184,12.67184,0,0,1-7.70062,1.76121l-9.3674-.86547c-6.92339,1.98652-11.09065,4.93215-16.57585,1.28954a10.49625,10.49625,0,0,1-4.5951-9.61024h0a10.56886,10.56886,0,0,1,6.124-8.74262l8.73335-10.84871,2.39246,5.06374c6.08422,1.13684,11.70352-2.18587,17.14694-7.19492l7.701,11.04139A12.67187,12.67187,0,0,1,1076.77382,787.77421Z" transform="translate(-117.0873 -85.39315)" fill="#2f2e41"/><circle cx="832.26026" cy="253.57887" r="28.88236" fill="#ffb8b8"/><polygon points="867.561 314.553 829.853 306.53 825.04 275.241 851.515 269.625 867.561 314.553" fill="#ffb8b8"/>
<path d="M974.21849,485.7907H906.8263L922.01669,447.653c-1.10383-13.12273,4.45793-22.77459,12.41823-31.17762l10.09892-25.35467c16.31743-10.73928,28.61911-9.937,41.719,4.01144C1001.7845,417.12279,991.03363,450.18,974.21849,485.7907Z" transform="translate(-117.0873 -85.39315)" fill="#f9a826"/><path d="M943.73155,566.82178l-1.91658,21.0823c-.68407,7.52478-4.63563,12.72072-12.00148,11.0371h0a12.48085,12.48085,0,0,1-8.82809-16.74961l6.70041-16.97436L946.9407,486.593l-3.20915-56.96244h32.09151l-4.01144,60.97388Z" transform="translate(-117.0873 -85.39315)" fill="#ffb8b8"/><path d="M978.22993,431.23513H941.32468l2.58722-24.07477a16.70084,16.70084,0,0,1,15.85293-15.99889h0a16.70082,16.70082,0,0,1,17.522,16.02556Z" transform="translate(-117.0873 -85.39315)" fill="#f9a826"/><circle cx="868.00636" cy="213.02522" r="10.85611" fill="#2f2e41"/>
<path d="M973.90739,295.76063a10.84756,10.84756,0,0,1,10.851-10.14657c-.22417-.02844-.44633-.063-.67491-.07771a10.85611,10.85611,0,0,0-1.39307,21.66748c.22858.0147.45334.00885.67931.00936A10.84757,10.84757,0,0,1,973.90739,295.76063Z" transform="translate(-117.0873 -85.39315)" fill="#2f2e41"/>
<path d="M973.84613,30
0.39648c-9.68186-8.03176-37.45214,2.17626-39.24414,7.57611-13.09266,1.78427-23.00541,9.423-23.00541,23.00534v.00008c7.784,3.1888,16.63679,2.79583,26.20662,0,15.25511,12.432,16.30088,28.06039,7.02342,46.01083l11.41378.22825,14.1478-20.67751.67656,20.974,26.16309-.52476V346.93175a62.84141,62.84141,0,0,0-6.70965-28.79C986.44114,310.22094,980.114,305.596,973.84613,300.39648Z" transform="translate(-117.0873 -85.39315)" fill="#2f2e41"/><ellipse cx="832.39577" cy="260.83952" rx="5.19142" ry="7.26799" fill="#ffb8b8"/><path d="M296.282,355.45552s3.125-54.0902,19.34846-41.79951-7.085,46.8158-7.085,46.8158Z" transform="translate(-117.0873 -85.39315)" fill="#ffb9b9"/><path d="M235.92345,515.90013s36.03786,40.45724,15.87529,43.23814-28.09392-38.11362-28.09392-38.11362Z" transform="translate(-117.0873 -85.39315)" fill="#ffb9b9"/><path d="M188.8971,324.39514h0A23.73388,23.73388,0,0,1,206.36,344.04548l11.46324,81.59129,16.0701,65.08391s8.035,7.23154,4.821,11.24907,4.01752,20.89113,4.01752,20.89113l-20.08762,6.428s-2.41052-16.87361-6.428-17.67711c-3.53071-.70614-43.05458-106.289-52.58144-131.86685-1.3136-3.52679-2.0569-5.53251-2.0569-5.53251S163.18494,320.37762,188.8971,324.39514Z" transform="translate(-117.0873 -85.39315)" fill="#575a89"/><path d="M192.56618,749.88472l12.33837,21.86516c9.55483,20.39953,1.064,24.1051-22.3633,13.99322l-5.3402-25.818Z" transform="translate(-117.0873 -85.39315)" fill="#ffb9b9"/><path d="M198.79161,778.94482s5.85718-9.53613,7.97566-7.93981,10.85643,8.51271,10.85643,8.51271L229.00529,790.419s38.45336,4.06549,14.01922,17.53864-37.93722,2.30193-37.93722,2.30193-34.2224,1.77972-33.67037-7.76833,11.589-24.65358,11.589-24.65358S196.91624,787.16361,198.79161,778.94482Z" transform="translate(-117.0873 -85.39315)" fill="#2f2e41"/>
<path d="M137.81474,502.73183,149.382,642.69519s.38557,83.66956,12.72394,99.86367S174.82984,766.85,174.82984,766.85l25.44788-13.10952s-13.10951-21.84437-10.41049-25.18844a18.63842,18.63842,0,0,0,3.47016-7.19977l-6.94033-86.36858,13.10952-150.37385Z" transform="translate(-117.0873 -85.39315)" fill="#2f2e41"/>
<path d="M155.55114,766.85" transform="translate(-117.0873 -85.39315)" fill="none" stroke="#3f3d56" stroke-miterlimit="10"/><polygon points="52.344 664.492 41.548 693.024 17.064 682.788 29.981 661.407 52.344 664.492" fill="#ffb9b9"/>

<path d="M151.42068,768.807s9.18277-5.73923,10.33062-3.44353,5.73923,12.05238,5.73923,12.05238l5.1653,14.34805s31.56575,20.08728,4.59138,21.23511-33.86143-14.348-33.86143-14.348S112.9679,785.4507,117.55931,777.4158s20.66121-16.36828,20.66121-16.36828S146.2554,775.1201,151.42068,768.807Z" transform="translate(-117.0873 -85.39315)" fill="#2f2e41"/>
<path d="M235.75053,503.11741l6.16919,128.78171s-56.29381,116.44335-62.463,119.52794a15.48767,15.48767,0,0,0-7.71148,9.25378l-33.93051-8.48263,15.423-24.67674,33.93051-82.51283s5.398-2.31345,6.94033-10.02493,4.62689-7.71148-3.08459-9.25377-7.71148-9.25378-7.71148-9.25378L157.86458,499.26167Z" transform="translate(-117.0873 -85.39315)" fill="#2f2e41"/><circle cx="207.9892" cy="270.23071" r="30.84592" transform="translate(-209.15563 346.85493) rotate(-80.78252)" fill="#ffb9b9"/>
<path d="M180.61345,272.15858s-2.31344,39.32855-5.398,43.18429,32.38822,3.08459,32.38822,3.08459-2.31344-33.15936,0-36.24395S180.61345,272.15858,180.61345,272.15858Z" transform="translate(-117.0873 -85.39315)" fill="#ffb9b9"/>
<path d="M238.06118,511.601s-87.13995-7.71-103.32995,0c0,0,5.96-22.11,4.42-24.42-1.12-1.69,1.97-64.67,1-101-.55-20.5-5.28-40.52,8.47-55.74,4.68-5.17,9.9-9.51,15.41-11.63,0,0-1.54-14.65,6.17-15.42,0,0,29.31-3.09,40.1,6.17,3.45,2.94,5.62,11.9,5.85,19.62-5.34,26.26-3.45,55.4,1.45,85.63.3,1.92.63,3.85.96,5.78C223.76119,450.571,231.62118,481.481,238.06118,511.601Z" transform="translate(-117.0873 -85.39315)" fill="#575a89"/>
<path d="M191.87478,279.3199c2.60865-.15566,5.15581.72594,7.74636,1.06987,9.26825,1.23048,18.91009-5.495,20.9565-14.61788a11.216,11.216,0,0,1,1.07186-3.49235c1.42642-2.32887,4.675-2.77291,7.353-2.23739s5.2165,1.78889,7.94378,1.932c4.211.22094,8.25369-2.37149,10.49785-5.94146a20.148,20.148,0,0,0,2.57662-12.16866l-2.01871,2.11872a10.25355,10.25355,0,0,1-.91406-5.57268,6.46661,6.46661,0,0,0-6.12523,1.56732c-1.78.18944-.43659-3.30164-1.759-4.50813a3.0592,3.0592,0,0,0-2.15226-.40265c-3.78679.03651-6.85011-2.85989-9.83416-5.19151a41.78926,41.78926,0,0,0-17.64976-8.05075c-4.276-.834-8.823-.968-12.87822.62424a27.50975,27.50975,0,0,0-8.69688,6.16918c-6.34882,6.10483-11.97077,13.27777-14.612,21.68017a36.4967,36.4967,0,0,0-.17481,21.16306c1.06428,3.59207,4.27174,15.894,8.96737,16.18043C188.07322,290.00142,184.5308,279.75806,191.87478,279.3199Z" transform="translate(-117.0873 -85.39315)" fill="#2f2e41"/>
<path d="M204.64256,328.18108l11.05113,1.18389s10.84819,21.04649,10.06038,25.43646-2.50345,1.72473,2.37918,8.7483,18.73758,25.1781,20.45328,27.84325,48.48864-33.02154,45.58076-43.71392c0,0,14.77228,10.59758,21.101,12.00818,0,0-48.20327,63.21789-54.92055,71.30829s-12.1235,6.42885-21.35485,1.63192-55.93257-52.644-55.93257-52.644Z" transform="translate(-117.0873 -85.39315)" fill="#575a89"/>
<path d="M218.56118,420.59094l-38.41-38.41,9.72-3.17,27.73,35.8C217.90121,416.731,218.23123,418.661,218.56118,420.59094Z" transform="translate(-117.0873 -85.39315)" opacity="0.1" /></svg>